<?xml version="1.0" encoding="utf-8"?>
<!-- Generator: Adobe Adobe Illustrator 24.2.0, SVG Export Plug-In . SVG Version: 6.00 Build 0)  -->
<svg version="1.1" xmlns="http://www.w3.org/2000/svg" xmlns:xlink="http://www.w3.org/1999/xlink" x="0px" y="0px"
	 viewBox="0 0 1024 1024" style="enable-background:new 0 0 1024 1024;" xml:space="preserve">
<style type="text/css">
	.st0{fill:#1E9BF0;}
	.st1{fill:#FFFFFF;}
</style>
<g id="Layer_1">
	<g>
		<g>
			<path class="st0" d="M990.04,121.61c-22.61,13.13-45.11,24.34-69.04,32.11c-19.99,6.49-40.48,11.43-60.74,17.05
				c-0.11,0.03-0.2,0.07-0.29,0.13c-7.58,5.17-19.24,12.9-26.3,18.71c-0.02,0.02-0.04,0.03-0.06,0.05
				c-8.58,7.23-16.9,14.81-24.72,22.82c-11.52,11.82-22.19,24.46-33.38,36.61c-14.09,15.32-27.84,30.99-42.64,45.59
				c-13.76,13.57-29.75,24.43-48.88,29.09c-8.3,2.02-16.7,2.42-24.65,1.16c-2.13-0.07-4.27-0.59-6.4-1.4
				c-13.93-3.93-25.85-13.37-32.42-28.53c-4.15-9.57-4.91-19.94-3.74-30.31c1.96-17.27,7.37-33.47,15.89-48.59
				c11.13-23.09,11.26-19.42,16.98-29.08c0.13-0.21,0.29-0.41,0.46-0.6c0.05-0.05,0.1-0.11,0.16-0.16c0.15-0.15,0.3-0.29,0.47-0.43
				c0.05-0.04,0.09-0.08,0.14-0.12c0.19-0.15,0.39-0.31,0.6-0.46c0.63-0.47,1.18-1.03,1.64-1.66c8.93-12.21,18.71-23.35,29.9-33.14
				c23.18-20.27,48.99-34.59,80.91-34.48c0.4,0,0.8-0.06,1.21-0.21c0.78-0.29,0.87-1.34,0.19-1.8c-0.91-0.62-1.86-1.01-2.85-1.28
				c-23.97-6.5-48.31-9.16-73.13-7.04c-26.13,2.23-51.07,8.8-74.66,20.28c-35.03,17.06-63.32,41.83-84.53,74.56
				c-24.95,38.5-36.18,80.65-33.68,126.46c0.07,1.29,0.04,2.59,0.02,4.11c-0.01,0.73-0.76,1.21-1.43,0.91
				c-0.96-0.43-1.68-0.74-2.35-1.14c-19.1-11.44-38.9-21.88-57.09-34.61c-24.59-17.2-48.14-35.93-71.76-54.48
				c-11.2-8.8-21.54-18.69-32.27-28.1c-0.02-0.02-0.04-0.04-0.06-0.05c-3.53-2.67-7.17-5.22-10.53-8.09
				c-0.14-0.12-0.26-0.24-0.38-0.39c-0.03-0.03-0.05-0.07-0.07-0.1c-0.75-0.98-1.14-2.47-1.88-4.11c-0.03-0.07-0.07-0.13-0.11-0.19
				c-0.52-0.74-0.94-1.22-1.34-1.63c-0.3-0.31-0.75-0.4-1.11-0.24l-1.97,0.88c-0.43,0.19-0.95,0.05-1.23-0.34
				c-2.24-3.12-4.08-5.69-5.94-8.55c-0.03-0.34-0.08-0.35-0.09-0.37c-0.64-0.45-1.28-0.88-1.95-1.62c-0.03-0.32-0.07-0.34-0.08-0.35
				c-0.59,0.25-1.17,0.51-1.94,0.86c-0.91,0.41-1.8-0.62-1.27-1.46c0.02-0.02,0.03-0.04,0.05-0.07c0,0,0-0.01,0.01-0.01
				c0.13-0.2,0.26-0.38,0.39-0.56c0,0,0,0,0.01-0.01c0.17-0.23,0.34-0.45,0.53-0.67c0.3-0.51,0.27-0.95,0.22-1.72
				c0-0.32,0.01-0.33,0.01-0.33c-0.66-0.45-1.32-0.91-2-1.68c-0.02-0.32,0.03-0.34,0.03-0.34c-1.12-0.19-2.68,0.03-3.31-0.63
				c-7.82-8.25-15.65-16.51-23.17-25.04c-3.65-4.14-6.54-8.94-9.96-13.29c-1.83-2.33-4.18-4.24-6.09-6.51
				c-6.44-7.68-12.16-16.08-19.33-22.98c-7.65-7.35-12.26-16.63-18.55-24.81c-6.57-8.54-13.15-17.09-19.55-25.76
				c-2.8-3.8-5.21-7.89-7.74-11.89c-4.25-6.69-8.21-13.58-12.86-19.98c-0.11-0.15-0.24-0.28-0.4-0.38c-0.04-0.03-0.1-0.05-0.15-0.08
				c-0.13-0.07-0.25-0.15-0.4-0.2c-0.05-0.02-0.12-0.03-0.17-0.05c-0.16-0.05-0.31-0.1-0.48-0.14c-0.1-0.02-0.22-0.04-0.33-0.06
				c-0.13-0.02-0.26-0.05-0.4-0.07c-0.19-0.02-0.38-0.04-0.57-0.05c-0.07-0.01-0.13-0.01-0.2-0.02c-0.52-0.04-1.05-0.05-1.55-0.08
				c-0.05,0-0.09-0.01-0.13-0.01c-0.2-0.01-0.39-0.02-0.57-0.03c-0.44-0.03-0.84,0.22-1.01,0.62c-0.01,0.03-0.03,0.07-0.04,0.1
				c-0.5,1.19-1,2.35-1.49,3.51c-0.58,1.37-1.16,2.72-1.73,4.05c-0.75,1.75-1.48,3.47-2.21,5.18c-0.47,1.1-0.93,2.19-1.39,3.28
				c-0.57,1.36-1.13,2.71-1.69,4.05c0,0.01-0.01,0.02-0.01,0.03c-0.43,1.04-0.93,2.34-1.43,3.71c-0.03,0.09-0.07,0.18-0.1,0.28
				c-0.51,1.4-1.02,2.87-1.46,4.23c-0.21,0.64-0.39,1.23-0.56,1.8c-0.08,0.26-0.16,0.52-0.23,0.76c-0.39,1.39-0.76,2.78-1.15,4.17
				c-1.27,4.59-2.5,9.19-3.68,13.8c-0.95,3.67-1.88,7.35-2.8,11.02c-0.92,3.68-1.84,7.36-2.76,11.03c-0.07,0.29-0.14,0.67-0.2,1.06
				c-0.06,0.39-0.1,0.78-0.11,1.07c-0.7,16.81-1.67,33.62-1.92,50.44c-0.12,7.82,0.99,15.7,1.95,23.49
				c1.07,8.69,2.2,17.41,4.07,25.95c1.51,6.91,4.25,13.54,6.22,20.35c0.29,0.98,0.52,1.98,0.73,2.98c0.32,1.51,0.6,3.03,0.87,4.54
				c0.08,0.44,0.16,0.88,0.24,1.32c0.12,0.63-0.36,1.21-1,1.2c0,0,0,0,0,0c0,0,0,0,0,0c-0.34,0-0.7-0.05-1.07-0.11
				c-0.11-0.02-0.23-0.05-0.34-0.07c-0.28-0.06-0.56-0.13-0.85-0.21c-0.13-0.04-0.25-0.07-0.38-0.12c-0.34-0.11-0.69-0.24-1.05-0.38
				c-0.07-0.03-0.15-0.05-0.22-0.09c-0.44-0.18-0.9-0.4-1.36-0.63c-0.09-0.04-0.18-0.09-0.27-0.14c-0.39-0.2-0.78-0.41-1.17-0.64
				c-0.12-0.07-0.23-0.13-0.35-0.2c-0.42-0.25-0.84-0.51-1.27-0.78c-0.06-0.04-0.12-0.08-0.18-0.12c-1.04-0.68-2.09-1.44-3.13-2.25
				c-0.02-0.02-0.04-0.03-0.07-0.05c-2.3-1.81-4.55-3.91-6.48-6.09c-0.03-0.03-0.04-0.07-0.06-0.1c-1.6-1.83-3-3.7-4.01-5.52
				c-0.08-0.4-0.2-0.36-0.2-0.36c-1.15-0.11-2.7,0.22-3.4-0.4c-5.9-5.3-11.75-10.67-17.41-16.22c-3.77-3.7-6.27-8.95-12.55-9.87
				c-0.38-0.05-0.69-0.31-0.82-0.66c-2.66-7.45-9.1-11.97-14.68-17.43c-5.31-5.19-9.24-11.8-13.77-18.39
				c-0.09-0.14-0.14-0.3-0.17-0.46c-0.08-0.44-0.31-0.67-0.31-0.67c-1.37-0.66-2.9-1.14-4.18-1.92c-0.05-0.03-0.1-0.06-0.15-0.09
				c-0.24-0.15-0.47-0.32-0.69-0.5c-2.4-2-3.95-2.38-4.9,1.17c-0.45,1.69-0.99,3.43-1.88,4.9c-0.08,0.13-0.17,0.26-0.27,0.38
				c-0.03,0.03-0.06,0.06-0.08,0.09c-0.08,0.09-0.17,0.18-0.26,0.27c0,0,0,0,0,0c0,0,0,0,0,0c-0.68,0.63-1.66,1.17-2.77,1.96
				c-0.06,0.04-0.12,0.1-0.17,0.15c-0.82,0.86-1.16,1.41-1.42,2c-22.44,49.63-25.35,100.49-8.99,152.35
				c12.94,41.01,36.92,74.49,70.55,101.15c2.57,2.04,5.19,4.01,7.8,5.99c0.78,0.59,0.34,1.84-0.63,1.81
				c-31.3-0.81-60.19-9.33-88.27-23.95c-0.67-0.35-1.48,0.13-1.48,0.89c-0.15,37.75,8.74,71.98,26.86,103.59
				c30.55,53.28,76.13,86.69,135.17,102.01c1.01,0.26,1.01,1.68,0.01,1.95c-28.39,7.58-57.13,7.55-86.36,3.94
				c-0.76-0.09-1.34,0.66-1.07,1.37c33.96,87.5,97.5,134.91,191.52,143.55c0.92,0.08,1.26,1.26,0.52,1.81
				c-90.15,67.46-190.58,95.6-301.97,85.91c-0.99-0.09-1.5,1.16-0.72,1.78c0.65,0.52,1.3,0.95,1.99,1.33
				c19.09,10.45,37.9,21.47,57.37,31.17c41.6,20.73,85.47,35.16,130.86,45.02c29.82,6.48,59.97,10.31,90.43,12.37
				c29.67,2.01,59.27,1.6,88.85-0.76c30.23-2.41,60.14-6.95,89.76-13.65c35.01-7.92,68.95-19.03,101.85-33.23
				c31.22-13.47,60.74-30.17,89.19-48.78c0.02-0.01,0.04-0.02,0.05-0.04c6.82-5.08,13.67-10.1,20.44-15.24
				c8.95-6.81,17.82-13.72,27.2-20.96c0.02-0.01,0.03-0.03,0.05-0.04c6.44-5.66,12.45-10.89,18.36-16.22
				c33.33-30.08,62.31-63.97,87.77-100.87c26.25-38.05,47.9-78.58,65.14-121.52c11.79-29.39,21.45-59.42,28.72-90.2
				c11.46-48.48,16.79-97.67,16.09-147.52c-0.05-3.32,1.63-6.99,3.43-9.94c7.93-13.05,17.33-25.32,24.13-38.91
				c20.77-41.55,36.01-85.11,44.04-131c1.33-7.58,2.11-15.25,3.18-23.57C991.65,121.78,990.76,121.19,990.04,121.61z"/>
		</g>
	</g>
</g>
<g id="Layer_2">
	<path id="_x3C_Compound_Path_x3E_" d="M647.35,185.43c0.25-0.43-9.94,1.13,30.31-34.07c23.18-20.27,48.99-34.59,80.91-34.48
		c0.76,0,1.51-0.21,2.49-0.58c0.16-0.06,1.08,0.19,1.25,0.19c26.03,0,58.72,22.94,86.65,40.86c7.64,4.9,13.05,8.8,11.67,14.69
		c-0.06,0.25-3.8,1.91-3.98,2.1c-10.66,10.66-17.85,11.96-26.14,19.25c-4.26,3.75-8.5,7.22-11.22,9.99
		c-6.38,6.5-11.4,11.06-17.64,17.71c-5.56,5.93-7.42,8.05-12.8,14.14c-4.31,4.88-10.83,12.05-15.2,16.87
		c-10.77,11.87-24.73,26.97-35.78,38.59c-3.31,3.48-12.46,12.15-16.23,15.11c-6.38,5.01-16.65,12.47-26.08,15.85
		c-10.53,3.77-17.14,5.94-27.09,6.5c-8.68,0.49-18.75-3.42-22.15-5.21c-0.44-0.23,0.42,0.23,0,0c-1.59-0.84-16.56-8.79-21.34-13.61
		c-9.03-9.1-12.28-20.54-11.45-33.98c0.35-5.69,1.69-11.33,1.76-17.01c0.07-5.31,1.22-10.02,4.02-14.45
		c0.86-1.36,1.45-2.92,2.04-4.43c3.58-9.14,6.96-18.36,10.8-27.39C633.18,209.59,644.32,190.69,647.35,185.43z M855.42,171.46
		 M693.15,195.96c-0.02,0.25-0.04,0.52-0.04,0.77c-0.25,23.03,16.43,40.82,37.68,39.36c17.25-1.18,28.34-11.35,34.78-26.75
		c6.78-16.22,0.52-35.79-14.05-45.5c-14.67-9.77-37.24-2.38-46.12,5.09C699.72,173.71,694.12,184.96,693.15,195.96z"/>
	<path d="M613.4,287.28c0-9.71-1.51-27.02,0-35.86c1.52-8.87,7.2-26.76,10.95-34.94c7.58-16.54,26.59-55.06,46.55-66.31
		c9.72-5.48,28.22-15.64,38.11-20.81c13.68-7.16,42.82-16.56,56.79-14.4c11.36,1.75,47.71,17.94,56.89,24.36
		c8.94,6.25,39.98,18.81,39.98,30.81s-63.25,52.66-81.62,72.93c-25.94,28.61-48,61.57-70.97,72.18
		c-6.65,3.07-22.11,12.06-35.31,12.95c-17.59,1.18-25.31-2.55-32.74-6.34c-6.41-3.27-21.99-11.54-21.99-18.59"/>
</g>
<g id="Layer_3">
	<path class="st1" d="M730.7,171.46c-4.72,0.5-16,4.34-23.91,11.7c-7.91,7.36-12.45,18.24-13.69,22.82c-0.5,1.86-2.18,10.99,0,17.42
		c3.63,10.71,13.19,20.13,21.75,21.48c5.77,0.91,18.2-0.83,25.49-4.35c13.22-6.39,20.97-17.5,22.57-21.17
		c1.02-2.35,4.84-11.13,5.39-19.45c0.61-9.31-2.23-18.17-4.86-19.34c-3.23-1.44-6.92-4.87-13.55-6.87S733.7,171.14,730.7,171.46z"/>
</g>
</svg>
